<mxfile host="app.diagrams.net" modified="2021-01-02T13:14:35.898Z" agent="5.0 (Macintosh; Intel Mac OS X 10_15_6) AppleWebKit/537.36 (KHTML, like Gecko) Chrome/87.0.4280.88 Safari/537.36" etag="PCqQ0VHngqDUZPvSeHRI" version="14.1.1" type="github">
  <diagram id="bhUsGMsvUgxmxP1F7mt3" name="Page-1">
    <mxGraphModel dx="1773" dy="543" grid="1" gridSize="10" guides="1" tooltips="1" connect="1" arrows="1" fold="1" page="1" pageScale="1" pageWidth="827" pageHeight="1169" math="0" shadow="0">
      <root>
        <mxCell id="0" />
        <mxCell id="1" parent="0" />
        <mxCell id="8hwrxd2nhYL35hREFJ9F-3" value="" style="edgeStyle=orthogonalEdgeStyle;rounded=0;orthogonalLoop=1;jettySize=auto;html=1;strokeWidth=2;strokeColor=#7EA6E0;" parent="1" source="8hwrxd2nhYL35hREFJ9F-1" target="8hwrxd2nhYL35hREFJ9F-2" edge="1">
          <mxGeometry relative="1" as="geometry" />
        </mxCell>
        <mxCell id="8hwrxd2nhYL35hREFJ9F-1" value="开始" style="strokeWidth=2;html=1;shape=mxgraph.flowchart.start_2;whiteSpace=wrap;fillColor=#fff2cc;strokeColor=#d6b656;" parent="1" vertex="1">
          <mxGeometry y="230" width="60" height="50" as="geometry" />
        </mxCell>
        <mxCell id="8hwrxd2nhYL35hREFJ9F-5" value="" style="edgeStyle=orthogonalEdgeStyle;rounded=0;orthogonalLoop=1;jettySize=auto;html=1;strokeWidth=2;strokeColor=#7EA6E0;" parent="1" source="8hwrxd2nhYL35hREFJ9F-2" target="8hwrxd2nhYL35hREFJ9F-4" edge="1">
          <mxGeometry relative="1" as="geometry" />
        </mxCell>
        <mxCell id="8hwrxd2nhYL35hREFJ9F-2" value="CasState(0,1)" style="whiteSpace=wrap;html=1;strokeWidth=2;fillColor=#dae8fc;strokeColor=#6c8ebf;" parent="1" vertex="1">
          <mxGeometry x="110" y="227.5" width="90" height="55" as="geometry" />
        </mxCell>
        <mxCell id="8hwrxd2nhYL35hREFJ9F-7" value="" style="edgeStyle=orthogonalEdgeStyle;rounded=0;orthogonalLoop=1;jettySize=auto;html=1;strokeWidth=2;strokeColor=#7EA6E0;" parent="1" source="8hwrxd2nhYL35hREFJ9F-4" target="8hwrxd2nhYL35hREFJ9F-6" edge="1">
          <mxGeometry relative="1" as="geometry">
            <Array as="points">
              <mxPoint x="490" y="255" />
              <mxPoint x="490" y="255" />
            </Array>
          </mxGeometry>
        </mxCell>
        <mxCell id="8hwrxd2nhYL35hREFJ9F-41" value="是" style="edgeLabel;html=1;align=center;verticalAlign=middle;resizable=0;points=[];" parent="8hwrxd2nhYL35hREFJ9F-7" vertex="1" connectable="0">
          <mxGeometry x="-0.3111" relative="1" as="geometry">
            <mxPoint as="offset" />
          </mxGeometry>
        </mxCell>
        <mxCell id="8hwrxd2nhYL35hREFJ9F-9" value="" style="edgeStyle=orthogonalEdgeStyle;rounded=0;orthogonalLoop=1;jettySize=auto;html=1;strokeWidth=2;" parent="1" source="8hwrxd2nhYL35hREFJ9F-4" target="8hwrxd2nhYL35hREFJ9F-8" edge="1">
          <mxGeometry relative="1" as="geometry" />
        </mxCell>
        <mxCell id="8hwrxd2nhYL35hREFJ9F-10" value="否" style="edgeLabel;html=1;align=center;verticalAlign=middle;resizable=0;points=[];" parent="8hwrxd2nhYL35hREFJ9F-9" vertex="1" connectable="0">
          <mxGeometry x="-0.2889" y="-2" relative="1" as="geometry">
            <mxPoint as="offset" />
          </mxGeometry>
        </mxCell>
        <mxCell id="8hwrxd2nhYL35hREFJ9F-4" value="CAS是否成功" style="rhombus;whiteSpace=wrap;html=1;strokeWidth=2;fillColor=#dae8fc;strokeColor=#6c8ebf;" parent="1" vertex="1">
          <mxGeometry x="260" y="215" width="80" height="80" as="geometry" />
        </mxCell>
        <mxCell id="8hwrxd2nhYL35hREFJ9F-46" value="" style="edgeStyle=orthogonalEdgeStyle;rounded=0;orthogonalLoop=1;jettySize=auto;html=1;strokeWidth=2;strokeColor=#7EA6E0;" parent="1" source="8hwrxd2nhYL35hREFJ9F-6" target="8hwrxd2nhYL35hREFJ9F-44" edge="1">
          <mxGeometry relative="1" as="geometry" />
        </mxCell>
        <mxCell id="8hwrxd2nhYL35hREFJ9F-6" value="获取锁成功" style="whiteSpace=wrap;html=1;strokeWidth=2;fillColor=#dae8fc;strokeColor=#6c8ebf;" parent="1" vertex="1">
          <mxGeometry x="410" y="222.5" width="120" height="60" as="geometry" />
        </mxCell>
        <mxCell id="8hwrxd2nhYL35hREFJ9F-12" value="" style="edgeStyle=orthogonalEdgeStyle;rounded=0;orthogonalLoop=1;jettySize=auto;html=1;strokeWidth=2;fillColor=#d5e8d4;strokeColor=#82b366;" parent="1" source="8hwrxd2nhYL35hREFJ9F-8" target="8hwrxd2nhYL35hREFJ9F-11" edge="1">
          <mxGeometry relative="1" as="geometry" />
        </mxCell>
        <mxCell id="8hwrxd2nhYL35hREFJ9F-8" value="再次尝试获取&lt;br&gt;tryAcquire" style="whiteSpace=wrap;html=1;strokeWidth=2;fillColor=#d5e8d4;strokeColor=#82b366;" parent="1" vertex="1">
          <mxGeometry x="240" y="357" width="120" height="60" as="geometry" />
        </mxCell>
        <mxCell id="8hwrxd2nhYL35hREFJ9F-20" value="" style="edgeStyle=orthogonalEdgeStyle;rounded=0;orthogonalLoop=1;jettySize=auto;html=1;strokeWidth=2;fillColor=#d5e8d4;strokeColor=#82b366;" parent="1" source="8hwrxd2nhYL35hREFJ9F-11" target="8hwrxd2nhYL35hREFJ9F-19" edge="1">
          <mxGeometry relative="1" as="geometry" />
        </mxCell>
        <mxCell id="8hwrxd2nhYL35hREFJ9F-11" value="获取state的值" style="whiteSpace=wrap;html=1;strokeWidth=2;fillColor=#d5e8d4;strokeColor=#82b366;" parent="1" vertex="1">
          <mxGeometry x="240" y="470" width="120" height="60" as="geometry" />
        </mxCell>
        <mxCell id="8hwrxd2nhYL35hREFJ9F-22" value="" style="edgeStyle=orthogonalEdgeStyle;rounded=0;orthogonalLoop=1;jettySize=auto;html=1;strokeWidth=2;fillColor=#d5e8d4;strokeColor=#82b366;" parent="1" source="8hwrxd2nhYL35hREFJ9F-19" target="8hwrxd2nhYL35hREFJ9F-21" edge="1">
          <mxGeometry relative="1" as="geometry" />
        </mxCell>
        <mxCell id="8hwrxd2nhYL35hREFJ9F-35" value="" style="edgeStyle=orthogonalEdgeStyle;rounded=0;orthogonalLoop=1;jettySize=auto;html=1;strokeWidth=2;fillColor=#d5e8d4;strokeColor=#82b366;" parent="1" source="8hwrxd2nhYL35hREFJ9F-19" target="8hwrxd2nhYL35hREFJ9F-34" edge="1">
          <mxGeometry relative="1" as="geometry" />
        </mxCell>
        <mxCell id="8hwrxd2nhYL35hREFJ9F-19" value="state=0？" style="rhombus;whiteSpace=wrap;html=1;strokeWidth=2;fillColor=#d5e8d4;strokeColor=#82b366;" parent="1" vertex="1">
          <mxGeometry x="260" y="580" width="80" height="80" as="geometry" />
        </mxCell>
        <mxCell id="8hwrxd2nhYL35hREFJ9F-24" value="" style="edgeStyle=orthogonalEdgeStyle;rounded=0;orthogonalLoop=1;jettySize=auto;html=1;strokeWidth=2;fillColor=#d5e8d4;strokeColor=#82b366;" parent="1" source="8hwrxd2nhYL35hREFJ9F-21" target="8hwrxd2nhYL35hREFJ9F-23" edge="1">
          <mxGeometry relative="1" as="geometry" />
        </mxCell>
        <mxCell id="8hwrxd2nhYL35hREFJ9F-21" value="获取持有锁的线程" style="whiteSpace=wrap;html=1;strokeWidth=2;fillColor=#d5e8d4;strokeColor=#82b366;" parent="1" vertex="1">
          <mxGeometry x="240" y="720" width="120" height="60" as="geometry" />
        </mxCell>
        <mxCell id="8hwrxd2nhYL35hREFJ9F-26" value="" style="edgeStyle=orthogonalEdgeStyle;rounded=0;orthogonalLoop=1;jettySize=auto;html=1;strokeWidth=2;fillColor=#d5e8d4;strokeColor=#82b366;" parent="1" source="8hwrxd2nhYL35hREFJ9F-23" target="8hwrxd2nhYL35hREFJ9F-25" edge="1">
          <mxGeometry relative="1" as="geometry" />
        </mxCell>
        <mxCell id="8hwrxd2nhYL35hREFJ9F-40" value="" style="edgeStyle=orthogonalEdgeStyle;rounded=0;orthogonalLoop=1;jettySize=auto;html=1;strokeWidth=2;" parent="1" source="8hwrxd2nhYL35hREFJ9F-23" target="8hwrxd2nhYL35hREFJ9F-38" edge="1">
          <mxGeometry relative="1" as="geometry" />
        </mxCell>
        <mxCell id="8hwrxd2nhYL35hREFJ9F-23" value="持有锁线程等于当前线程" style="rhombus;whiteSpace=wrap;html=1;strokeWidth=2;fillColor=#d5e8d4;strokeColor=#82b366;" parent="1" vertex="1">
          <mxGeometry x="260" y="830" width="80" height="80" as="geometry" />
        </mxCell>
        <mxCell id="8hwrxd2nhYL35hREFJ9F-60" value="" style="edgeStyle=orthogonalEdgeStyle;rounded=0;orthogonalLoop=1;jettySize=auto;html=1;strokeWidth=2;" parent="1" source="8hwrxd2nhYL35hREFJ9F-25" target="8hwrxd2nhYL35hREFJ9F-59" edge="1">
          <mxGeometry relative="1" as="geometry" />
        </mxCell>
        <mxCell id="8hwrxd2nhYL35hREFJ9F-25" value="state加1，获取锁成功" style="whiteSpace=wrap;html=1;strokeWidth=2;fillColor=#d5e8d4;strokeColor=#82b366;" parent="1" vertex="1">
          <mxGeometry x="240" y="970" width="120" height="60" as="geometry" />
        </mxCell>
        <mxCell id="8hwrxd2nhYL35hREFJ9F-37" value="" style="edgeStyle=orthogonalEdgeStyle;rounded=0;orthogonalLoop=1;jettySize=auto;html=1;strokeWidth=2;fillColor=#d5e8d4;strokeColor=#82b366;" parent="1" source="8hwrxd2nhYL35hREFJ9F-34" target="8hwrxd2nhYL35hREFJ9F-36" edge="1">
          <mxGeometry relative="1" as="geometry" />
        </mxCell>
        <mxCell id="8hwrxd2nhYL35hREFJ9F-39" value="" style="edgeStyle=orthogonalEdgeStyle;rounded=0;orthogonalLoop=1;jettySize=auto;html=1;" parent="1" source="8hwrxd2nhYL35hREFJ9F-34" target="8hwrxd2nhYL35hREFJ9F-38" edge="1">
          <mxGeometry relative="1" as="geometry" />
        </mxCell>
        <mxCell id="8hwrxd2nhYL35hREFJ9F-34" value="CasState(0,1)是否成功？" style="rhombus;whiteSpace=wrap;html=1;strokeWidth=2;fillColor=#d5e8d4;strokeColor=#82b366;" parent="1" vertex="1">
          <mxGeometry x="405" y="575" width="110" height="90" as="geometry" />
        </mxCell>
        <mxCell id="8hwrxd2nhYL35hREFJ9F-53" value="" style="edgeStyle=orthogonalEdgeStyle;rounded=0;orthogonalLoop=1;jettySize=auto;html=1;strokeWidth=2;fillColor=#d5e8d4;strokeColor=#82b366;" parent="1" source="8hwrxd2nhYL35hREFJ9F-36" target="8hwrxd2nhYL35hREFJ9F-52" edge="1">
          <mxGeometry relative="1" as="geometry" />
        </mxCell>
        <mxCell id="8hwrxd2nhYL35hREFJ9F-36" value="当前线程获取锁成功" style="whiteSpace=wrap;html=1;strokeWidth=2;fillColor=#d5e8d4;strokeColor=#82b366;" parent="1" vertex="1">
          <mxGeometry x="575" y="590" width="120" height="60" as="geometry" />
        </mxCell>
        <mxCell id="8hwrxd2nhYL35hREFJ9F-55" value="" style="edgeStyle=orthogonalEdgeStyle;rounded=0;orthogonalLoop=1;jettySize=auto;html=1;fillColor=#ffcc99;strokeWidth=2;strokeColor=#7EA6E0;" parent="1" source="8hwrxd2nhYL35hREFJ9F-38" target="8hwrxd2nhYL35hREFJ9F-54" edge="1">
          <mxGeometry relative="1" as="geometry" />
        </mxCell>
        <mxCell id="8hwrxd2nhYL35hREFJ9F-38" value="获取锁失败" style="whiteSpace=wrap;html=1;strokeWidth=2;fillColor=#cce5ff;strokeColor=#7EA6E0;" parent="1" vertex="1">
          <mxGeometry x="400" y="840" width="120" height="60" as="geometry" />
        </mxCell>
        <mxCell id="8hwrxd2nhYL35hREFJ9F-44" value="结束" style="strokeWidth=2;html=1;shape=mxgraph.flowchart.start_2;whiteSpace=wrap;fillColor=#fff2cc;strokeColor=#d6b656;" parent="1" vertex="1">
          <mxGeometry x="600" y="227.5" width="60" height="50" as="geometry" />
        </mxCell>
        <mxCell id="8hwrxd2nhYL35hREFJ9F-48" value="是" style="text;html=1;align=center;verticalAlign=middle;resizable=0;points=[];autosize=1;" parent="1" vertex="1">
          <mxGeometry x="355" y="599" width="30" height="20" as="geometry" />
        </mxCell>
        <mxCell id="8hwrxd2nhYL35hREFJ9F-49" value="否" style="text;html=1;align=center;verticalAlign=middle;resizable=0;points=[];autosize=1;" parent="1" vertex="1">
          <mxGeometry x="300" y="670" width="30" height="20" as="geometry" />
        </mxCell>
        <mxCell id="8hwrxd2nhYL35hREFJ9F-51" value="是" style="text;html=1;align=center;verticalAlign=middle;resizable=0;points=[];autosize=1;" parent="1" vertex="1">
          <mxGeometry x="530" y="599" width="30" height="20" as="geometry" />
        </mxCell>
        <mxCell id="8hwrxd2nhYL35hREFJ9F-52" value="结束" style="strokeWidth=2;html=1;shape=mxgraph.flowchart.start_2;whiteSpace=wrap;fillColor=#fff2cc;strokeColor=#d6b656;" parent="1" vertex="1">
          <mxGeometry x="767" y="595" width="60" height="50" as="geometry" />
        </mxCell>
        <mxCell id="EhvTHwDRRodYQaBIyMbe-2" value="" style="edgeStyle=orthogonalEdgeStyle;rounded=0;orthogonalLoop=1;jettySize=auto;html=1;strokeColor=#7EA6E0;strokeWidth=2;" edge="1" parent="1" source="8hwrxd2nhYL35hREFJ9F-54" target="EhvTHwDRRodYQaBIyMbe-1">
          <mxGeometry relative="1" as="geometry" />
        </mxCell>
        <mxCell id="8hwrxd2nhYL35hREFJ9F-54" value="创建一个Node.EXCLUSIVE的节点" style="whiteSpace=wrap;html=1;strokeWidth=2;fillColor=#cce5ff;strokeColor=#7EA6E0;" parent="1" vertex="1">
          <mxGeometry x="590" y="840" width="120" height="60" as="geometry" />
        </mxCell>
        <mxCell id="8hwrxd2nhYL35hREFJ9F-57" value="是" style="text;html=1;align=center;verticalAlign=middle;resizable=0;points=[];autosize=1;" parent="1" vertex="1">
          <mxGeometry x="300" y="930" width="30" height="20" as="geometry" />
        </mxCell>
        <mxCell id="8hwrxd2nhYL35hREFJ9F-59" value="结束" style="strokeWidth=2;html=1;shape=mxgraph.flowchart.start_2;whiteSpace=wrap;fillColor=#fff2cc;strokeColor=#d6b656;" parent="1" vertex="1">
          <mxGeometry x="270" y="1080" width="60" height="50" as="geometry" />
        </mxCell>
        <mxCell id="EhvTHwDRRodYQaBIyMbe-8" value="" style="edgeStyle=orthogonalEdgeStyle;rounded=0;orthogonalLoop=1;jettySize=auto;html=1;strokeWidth=2;fillColor=#cce5ff;strokeColor=#7EA6E0;" edge="1" parent="1" source="8hwrxd2nhYL35hREFJ9F-61" target="EhvTHwDRRodYQaBIyMbe-7">
          <mxGeometry relative="1" as="geometry" />
        </mxCell>
        <mxCell id="EhvTHwDRRodYQaBIyMbe-19" value="" style="edgeStyle=orthogonalEdgeStyle;rounded=0;orthogonalLoop=1;jettySize=auto;html=1;strokeWidth=2;entryX=0;entryY=0.5;entryDx=0;entryDy=0;exitX=0.5;exitY=1;exitDx=0;exitDy=0;fillColor=#cce5ff;strokeColor=#7EA6E0;" edge="1" parent="1" source="8hwrxd2nhYL35hREFJ9F-61" target="EhvTHwDRRodYQaBIyMbe-15">
          <mxGeometry relative="1" as="geometry">
            <mxPoint x="1215" y="1000" as="targetPoint" />
          </mxGeometry>
        </mxCell>
        <mxCell id="8hwrxd2nhYL35hREFJ9F-61" value="前置节点是否为头节点" style="rhombus;whiteSpace=wrap;html=1;strokeWidth=2;fillColor=#cce5ff;strokeColor=#36393d;" parent="1" vertex="1">
          <mxGeometry x="1175" y="830" width="80" height="80" as="geometry" />
        </mxCell>
        <mxCell id="8hwrxd2nhYL35hREFJ9F-78" value="&lt;font style=&quot;font-size: 18px&quot;&gt;ReentrantLock NoFair Lock Flow&lt;/font&gt;" style="text;html=1;align=center;verticalAlign=middle;resizable=0;points=[];autosize=1;" parent="1" vertex="1">
          <mxGeometry x="165" y="160" width="280" height="20" as="geometry" />
        </mxCell>
        <mxCell id="EhvTHwDRRodYQaBIyMbe-5" value="" style="edgeStyle=orthogonalEdgeStyle;rounded=0;orthogonalLoop=1;jettySize=auto;html=1;strokeColor=#7EA6E0;strokeWidth=2;" edge="1" parent="1" source="EhvTHwDRRodYQaBIyMbe-1" target="EhvTHwDRRodYQaBIyMbe-4">
          <mxGeometry relative="1" as="geometry" />
        </mxCell>
        <mxCell id="EhvTHwDRRodYQaBIyMbe-1" value="将Node插入双向链表尾部" style="whiteSpace=wrap;html=1;strokeWidth=2;fillColor=#cce5ff;strokeColor=#36393d;" vertex="1" parent="1">
          <mxGeometry x="790" y="840" width="120" height="60" as="geometry" />
        </mxCell>
        <mxCell id="EhvTHwDRRodYQaBIyMbe-6" value="" style="edgeStyle=orthogonalEdgeStyle;rounded=0;orthogonalLoop=1;jettySize=auto;html=1;strokeColor=#7EA6E0;strokeWidth=2;" edge="1" parent="1" source="EhvTHwDRRodYQaBIyMbe-4" target="8hwrxd2nhYL35hREFJ9F-61">
          <mxGeometry relative="1" as="geometry" />
        </mxCell>
        <mxCell id="EhvTHwDRRodYQaBIyMbe-4" value="获取节点的前置节点" style="whiteSpace=wrap;html=1;strokeWidth=2;fillColor=#cce5ff;strokeColor=#36393d;" vertex="1" parent="1">
          <mxGeometry x="990" y="840" width="120" height="60" as="geometry" />
        </mxCell>
        <mxCell id="EhvTHwDRRodYQaBIyMbe-12" value="" style="edgeStyle=orthogonalEdgeStyle;rounded=0;orthogonalLoop=1;jettySize=auto;html=1;strokeWidth=2;fillColor=#cce5ff;strokeColor=#7EA6E0;" edge="1" parent="1" source="EhvTHwDRRodYQaBIyMbe-7" target="EhvTHwDRRodYQaBIyMbe-11">
          <mxGeometry relative="1" as="geometry" />
        </mxCell>
        <mxCell id="EhvTHwDRRodYQaBIyMbe-7" value="再次尝试获取锁 tryAcquire" style="whiteSpace=wrap;html=1;strokeWidth=2;fillColor=#cce5ff;strokeColor=#36393d;" vertex="1" parent="1">
          <mxGeometry x="1315" y="840" width="120" height="60" as="geometry" />
        </mxCell>
        <mxCell id="EhvTHwDRRodYQaBIyMbe-9" value="是" style="text;html=1;align=center;verticalAlign=middle;resizable=0;points=[];autosize=1;" vertex="1" parent="1">
          <mxGeometry x="1265" y="850" width="30" height="20" as="geometry" />
        </mxCell>
        <mxCell id="EhvTHwDRRodYQaBIyMbe-10" value="结束" style="strokeWidth=2;html=1;shape=mxgraph.flowchart.start_2;whiteSpace=wrap;fillColor=#fff2cc;strokeColor=#d6b656;" vertex="1" parent="1">
          <mxGeometry x="1630" y="845" width="60" height="50" as="geometry" />
        </mxCell>
        <mxCell id="EhvTHwDRRodYQaBIyMbe-13" value="" style="edgeStyle=orthogonalEdgeStyle;rounded=0;orthogonalLoop=1;jettySize=auto;html=1;strokeColor=#000000;strokeWidth=2;" edge="1" parent="1" source="EhvTHwDRRodYQaBIyMbe-11" target="EhvTHwDRRodYQaBIyMbe-10">
          <mxGeometry relative="1" as="geometry" />
        </mxCell>
        <mxCell id="EhvTHwDRRodYQaBIyMbe-16" value="" style="edgeStyle=orthogonalEdgeStyle;rounded=0;orthogonalLoop=1;jettySize=auto;html=1;strokeWidth=2;fillColor=#cce5ff;strokeColor=#7EA6E0;" edge="1" parent="1" source="EhvTHwDRRodYQaBIyMbe-11" target="EhvTHwDRRodYQaBIyMbe-15">
          <mxGeometry relative="1" as="geometry" />
        </mxCell>
        <mxCell id="EhvTHwDRRodYQaBIyMbe-11" value="获取锁是否成功" style="rhombus;whiteSpace=wrap;html=1;strokeWidth=2;strokeColor=#36393d;fillColor=#cce5ff;" vertex="1" parent="1">
          <mxGeometry x="1500" y="830" width="80" height="80" as="geometry" />
        </mxCell>
        <mxCell id="EhvTHwDRRodYQaBIyMbe-14" value="是" style="text;html=1;align=center;verticalAlign=middle;resizable=0;points=[];autosize=1;" vertex="1" parent="1">
          <mxGeometry x="1585" y="850" width="30" height="20" as="geometry" />
        </mxCell>
        <mxCell id="EhvTHwDRRodYQaBIyMbe-22" value="" style="edgeStyle=orthogonalEdgeStyle;rounded=0;orthogonalLoop=1;jettySize=auto;html=1;strokeColor=#000000;strokeWidth=2;" edge="1" parent="1" source="EhvTHwDRRodYQaBIyMbe-15" target="EhvTHwDRRodYQaBIyMbe-21">
          <mxGeometry relative="1" as="geometry" />
        </mxCell>
        <mxCell id="EhvTHwDRRodYQaBIyMbe-15" value="获取前置节点的waitStatus" style="whiteSpace=wrap;html=1;strokeWidth=2;fillColor=#cce5ff;strokeColor=#36393d;" vertex="1" parent="1">
          <mxGeometry x="1480" y="960" width="120" height="60" as="geometry" />
        </mxCell>
        <mxCell id="EhvTHwDRRodYQaBIyMbe-17" value="否" style="text;html=1;align=center;verticalAlign=middle;resizable=0;points=[];autosize=1;" vertex="1" parent="1">
          <mxGeometry x="1535" y="920" width="30" height="20" as="geometry" />
        </mxCell>
        <mxCell id="EhvTHwDRRodYQaBIyMbe-20" value="否" style="text;html=1;align=center;verticalAlign=middle;resizable=0;points=[];autosize=1;" vertex="1" parent="1">
          <mxGeometry x="1211" y="930" width="30" height="20" as="geometry" />
        </mxCell>
        <mxCell id="EhvTHwDRRodYQaBIyMbe-24" value="" style="edgeStyle=orthogonalEdgeStyle;rounded=0;orthogonalLoop=1;jettySize=auto;html=1;strokeWidth=2;fillColor=#cce5ff;strokeColor=#7EA6E0;" edge="1" parent="1" source="EhvTHwDRRodYQaBIyMbe-21" target="EhvTHwDRRodYQaBIyMbe-23">
          <mxGeometry relative="1" as="geometry" />
        </mxCell>
        <mxCell id="EhvTHwDRRodYQaBIyMbe-32" value="" style="edgeStyle=orthogonalEdgeStyle;rounded=0;orthogonalLoop=1;jettySize=auto;html=1;strokeWidth=2;fillColor=#cce5ff;strokeColor=#7EA6E0;" edge="1" parent="1" source="EhvTHwDRRodYQaBIyMbe-21" target="EhvTHwDRRodYQaBIyMbe-31">
          <mxGeometry relative="1" as="geometry" />
        </mxCell>
        <mxCell id="EhvTHwDRRodYQaBIyMbe-21" value="waitStatus==-1" style="rhombus;whiteSpace=wrap;html=1;strokeWidth=2;fillColor=#cce5ff;strokeColor=#36393d;" vertex="1" parent="1">
          <mxGeometry x="1500" y="1080" width="80" height="80" as="geometry" />
        </mxCell>
        <mxCell id="EhvTHwDRRodYQaBIyMbe-47" value="" style="edgeStyle=orthogonalEdgeStyle;rounded=0;orthogonalLoop=1;jettySize=auto;html=1;strokeColor=#7EA6E0;strokeWidth=2;entryX=1;entryY=0.5;entryDx=0;entryDy=0;entryPerimeter=0;" edge="1" parent="1" source="EhvTHwDRRodYQaBIyMbe-23" target="EhvTHwDRRodYQaBIyMbe-44">
          <mxGeometry relative="1" as="geometry">
            <mxPoint x="1540" y="1370" as="targetPoint" />
            <Array as="points">
              <mxPoint x="1540" y="1364" />
            </Array>
          </mxGeometry>
        </mxCell>
        <mxCell id="EhvTHwDRRodYQaBIyMbe-23" value="当前线程被阻塞" style="whiteSpace=wrap;html=1;strokeWidth=2;fillColor=#cce5ff;strokeColor=#36393d;" vertex="1" parent="1">
          <mxGeometry x="1480" y="1230" width="120" height="60" as="geometry" />
        </mxCell>
        <mxCell id="EhvTHwDRRodYQaBIyMbe-25" value="是" style="text;html=1;align=center;verticalAlign=middle;resizable=0;points=[];autosize=1;" vertex="1" parent="1">
          <mxGeometry x="1535" y="1170" width="30" height="20" as="geometry" />
        </mxCell>
        <mxCell id="EhvTHwDRRodYQaBIyMbe-34" value="" style="edgeStyle=orthogonalEdgeStyle;rounded=0;orthogonalLoop=1;jettySize=auto;html=1;strokeWidth=2;strokeColor=#7EA6E0;" edge="1" parent="1" source="EhvTHwDRRodYQaBIyMbe-31" target="EhvTHwDRRodYQaBIyMbe-33">
          <mxGeometry relative="1" as="geometry" />
        </mxCell>
        <mxCell id="EhvTHwDRRodYQaBIyMbe-39" value="" style="edgeStyle=orthogonalEdgeStyle;rounded=0;orthogonalLoop=1;jettySize=auto;html=1;strokeWidth=2;strokeColor=#7EA6E0;" edge="1" parent="1" source="EhvTHwDRRodYQaBIyMbe-31" target="EhvTHwDRRodYQaBIyMbe-38">
          <mxGeometry relative="1" as="geometry" />
        </mxCell>
        <mxCell id="EhvTHwDRRodYQaBIyMbe-31" value="waitStatus&amp;gt;0?" style="rhombus;whiteSpace=wrap;html=1;strokeWidth=2;fillColor=#cce5ff;strokeColor=#36393d;" vertex="1" parent="1">
          <mxGeometry x="1340" y="1080" width="80" height="80" as="geometry" />
        </mxCell>
        <mxCell id="EhvTHwDRRodYQaBIyMbe-36" value="" style="edgeStyle=orthogonalEdgeStyle;rounded=0;orthogonalLoop=1;jettySize=auto;html=1;strokeWidth=2;strokeColor=#7EA6E0;" edge="1" parent="1" source="EhvTHwDRRodYQaBIyMbe-33" target="EhvTHwDRRodYQaBIyMbe-35">
          <mxGeometry relative="1" as="geometry" />
        </mxCell>
        <mxCell id="EhvTHwDRRodYQaBIyMbe-33" value="前置节点为取消状态，循环移除前置节点为取消状态的节点" style="whiteSpace=wrap;html=1;strokeWidth=2;fillColor=#cce5ff;strokeColor=#36393d;" vertex="1" parent="1">
          <mxGeometry x="1160" y="1090" width="120" height="60" as="geometry" />
        </mxCell>
        <mxCell id="EhvTHwDRRodYQaBIyMbe-45" value="" style="edgeStyle=orthogonalEdgeStyle;rounded=0;orthogonalLoop=1;jettySize=auto;html=1;strokeWidth=2;fillColor=#cce5ff;strokeColor=#7EA6E0;" edge="1" parent="1" source="EhvTHwDRRodYQaBIyMbe-35" target="EhvTHwDRRodYQaBIyMbe-44">
          <mxGeometry relative="1" as="geometry" />
        </mxCell>
        <mxCell id="EhvTHwDRRodYQaBIyMbe-35" value="线程不阻塞" style="whiteSpace=wrap;html=1;strokeWidth=2;fillColor=#cce5ff;strokeColor=#36393d;" vertex="1" parent="1">
          <mxGeometry x="1160" y="1230" width="120" height="60" as="geometry" />
        </mxCell>
        <mxCell id="EhvTHwDRRodYQaBIyMbe-37" value="是" style="text;html=1;align=center;verticalAlign=middle;resizable=0;points=[];autosize=1;" vertex="1" parent="1">
          <mxGeometry x="1295" y="1100" width="30" height="20" as="geometry" />
        </mxCell>
        <mxCell id="EhvTHwDRRodYQaBIyMbe-41" value="" style="edgeStyle=orthogonalEdgeStyle;rounded=0;orthogonalLoop=1;jettySize=auto;html=1;strokeWidth=2;strokeColor=#7EA6E0;" edge="1" parent="1" source="EhvTHwDRRodYQaBIyMbe-38" target="EhvTHwDRRodYQaBIyMbe-35">
          <mxGeometry relative="1" as="geometry" />
        </mxCell>
        <mxCell id="EhvTHwDRRodYQaBIyMbe-38" value="CAS前置节点的waitStatus=-1" style="whiteSpace=wrap;html=1;strokeWidth=2;fillColor=#cce5ff;strokeColor=#36393d;" vertex="1" parent="1">
          <mxGeometry x="1320" y="1230" width="120" height="60" as="geometry" />
        </mxCell>
        <mxCell id="EhvTHwDRRodYQaBIyMbe-42" value="否" style="text;html=1;align=center;verticalAlign=middle;resizable=0;points=[];autosize=1;" vertex="1" parent="1">
          <mxGeometry x="1375" y="1180" width="30" height="20" as="geometry" />
        </mxCell>
        <mxCell id="EhvTHwDRRodYQaBIyMbe-43" value="否" style="text;html=1;align=center;verticalAlign=middle;resizable=0;points=[];autosize=1;" vertex="1" parent="1">
          <mxGeometry x="1445" y="1100" width="30" height="20" as="geometry" />
        </mxCell>
        <mxCell id="EhvTHwDRRodYQaBIyMbe-44" value="结束" style="strokeWidth=2;html=1;shape=mxgraph.flowchart.start_2;whiteSpace=wrap;fillColor=#fff2cc;strokeColor=#d6b656;" vertex="1" parent="1">
          <mxGeometry x="1190" y="1339" width="60" height="50" as="geometry" />
        </mxCell>
      </root>
    </mxGraphModel>
  </diagram>
</mxfile>
